<?xml version="1.0" encoding="UTF-8"?>
<svg id="_레이어_1" data-name="레이어 1" xmlns="http://www.w3.org/2000/svg" viewBox="0 0 30 100">
  <defs>
    <style>
      .cls-1 {
        fill: #fcfdfd;
      }

      .cls-2 {
        opacity: .8;
      }
    </style>
  </defs>
  <g class="cls-2">
    <g>
      <polygon class="cls-1" points="11.12 44.39 4.57 55.72 7.36 55.72 12.5 46.8 11.12 44.39"/>
      <polygon class="cls-1" points="23.46 44.31 19.68 50.19 22.57 50.21 26.33 44.31 23.46 44.31"/>
      <polygon class="cls-1" points="22.57 50.21 21.77 50.21 20.07 52.86 18.58 50.3 22.18 44.31 19.4 44.31 17.22 47.93 15.12 44.31 13.7 46.76 13.7 46.76 8.53 55.72 11.32 55.72 15.09 49.17 15.77 50.33 12.54 55.72 15.33 55.72 17.14 52.7 19.93 57.51 21.43 55.23 21.43 55.22 24.72 50.21 22.57 50.21"/>
    </g>
    <g>
      <path class="cls-1" d="M10.14,9.8v8.24l2.4-1.38,2.35-1.35,2.39-1.38,2.38-1.38-2.39-1.38-4.73,2.73v-2.71l-2.4-1.38h0Z"/>
      <path class="cls-1" d="M12.54,8.43v2.75l2.35,1.35v-2.75l-2.35-1.35h0Z"/>
      <path class="cls-1" d="M10.14,1.56V7.04l2.4,1.39v-2.72l2.35,1.35,4.74,2.73,2.39,1.38,2.4-1.38-2.4-1.38-7.13-4.12-2.35-1.35-2.4-1.39h0Z"/>
    </g>
    <g>
      <path class="cls-1" d="M3.73,95.51c.68,0,1.08,.53,1.08,1.21,0,.66-.4,1.19-1.08,1.19-.68,0-1.08-.53-1.08-1.19,0-.68,.4-1.21,1.08-1.21Zm0,1.98c.43,0,.6-.39,.6-.77,0-.4-.16-.79-.6-.79-.43,0-.6,.39-.6,.79,0,.38,.16,.77,.6,.77Z"/>
      <path class="cls-1" d="M5.09,96.19h.42v.21h0c.1-.18,.28-.26,.47-.26,.5,0,.72,.42,.72,.89,0,.44-.23,.86-.7,.86-.19,0-.37-.09-.48-.25h0v.79h-.44v-2.25Zm1.18,.84c0-.26-.1-.54-.38-.54s-.38,.27-.38,.54c0,.27,.1,.53,.38,.53s.38-.26,.38-.53Z"/>
      <path class="cls-1" d="M7.34,97.14c.01,.29,.15,.42,.39,.42,.18,0,.32-.11,.34-.22h.38c-.12,.39-.38,.56-.75,.56-.5,0-.81-.36-.81-.87,0-.5,.33-.88,.81-.88,.54,0,.8,.48,.77,.99h-1.15Zm.71-.29c-.04-.23-.14-.35-.35-.35-.28,0-.36,.22-.36,.35h.71Z"/>
      <path class="cls-1" d="M8.74,96.19h.42v.23h0c.11-.19,.3-.28,.49-.28,.47,0,.58,.27,.58,.68v1.02s-.44,0-.44,0v-.94c0-.27-.08-.41-.28-.41-.24,0-.34,.14-.34,.48v.87s-.44,0-.44,0v-1.66Z"/>
      <path class="cls-1" d="M11.8,97.09c0,.31,.23,.42,.49,.42,.17,0,.43-.05,.43-.29,0-.25-.33-.29-.65-.38-.33-.09-.66-.22-.66-.65,0-.47,.43-.69,.82-.69,.46,0,.88,.21,.88,.74h-.47c-.02-.28-.2-.35-.43-.35-.15,0-.33,.07-.33,.26,0,.18,.1,.2,.66,.35,.16,.04,.65,.15,.65,.67,0,.42-.32,.74-.91,.74-.49,0-.94-.25-.94-.82h.47Z"/>
      <path class="cls-1" d="M14.2,96.15c.5,0,.83,.35,.83,.88,0,.53-.32,.87-.83,.87-.5,0-.82-.35-.82-.87,0-.53,.32-.88,.82-.88Zm0,1.41c.3,0,.39-.27,.39-.53,0-.27-.09-.53-.39-.53-.3,0-.38,.27-.38,.53,0,.26,.09,.53,.38,.53Z"/>
      <path class="cls-1" d="M16.8,97.86h-.42v-.23h0c-.11,.19-.3,.28-.49,.28-.47,0-.58-.27-.58-.68v-1.02h.44v.94c0,.27,.08,.41,.28,.41,.24,0,.34-.14,.34-.48v-.87h.44v1.66Z"/>
      <path class="cls-1" d="M17.13,96.19h.42s0,.31,0,.31h0c.08-.21,.3-.35,.51-.35,.03,0,.07,0,.1,.02v.42s-.1-.02-.16-.02c-.32,0-.43,.24-.43,.53v.75s-.44,0-.44,0v-1.66Z"/>
      <path class="cls-1" d="M19.36,96.78c-.03-.19-.14-.29-.32-.29-.28,0-.37,.3-.37,.54,0,.24,.09,.52,.36,.52,.2,0,.32-.13,.35-.34h.42c-.06,.44-.35,.68-.77,.68-.48,0-.8-.35-.8-.85,0-.52,.3-.9,.81-.9,.38,0,.72,.21,.75,.63h-.43Z"/>
      <path class="cls-1" d="M20.4,97.14c.01,.29,.15,.42,.39,.42,.18,0,.32-.11,.34-.22h.38c-.12,.39-.38,.56-.75,.56-.5,0-.81-.36-.81-.87,0-.5,.33-.88,.81-.88,.54,0,.8,.48,.77,.99h-1.15Zm.71-.29c-.04-.23-.14-.35-.35-.35-.28,0-.36,.22-.36,.35h.71Z"/>
      <path class="cls-1" d="M22.71,95.56h.48s0,1.87,0,1.87h1.07v.42h-1.56s0-2.3,0-2.3Z"/>
      <path class="cls-1" d="M24.47,96.71c.02-.43,.39-.56,.75-.56,.32,0,.7,.07,.7,.47v.86c0,.15,.02,.3,.06,.37h-.44c-.02-.05-.03-.11-.03-.16-.14,.15-.34,.21-.54,.21-.3,0-.54-.16-.54-.5,0-.38,.27-.47,.54-.5,.27-.04,.52-.03,.52-.22,0-.2-.13-.23-.28-.23-.17,0-.27,.07-.29,.25h-.44Zm1.01,.34c-.07,.07-.23,.07-.36,.1-.14,.03-.26,.08-.26,.24,0,.17,.13,.21,.27,.21,.34,0,.35-.28,.35-.38v-.17Z"/>
      <path class="cls-1" d="M26.26,95.56h.44s0,.84,0,.84h0c.11-.17,.3-.25,.5-.25,.32,0,.66,.27,.66,.87,0,.61-.34,.88-.66,.88-.23,0-.43-.07-.52-.26h0v.21h-.42s0-2.3,0-2.3Zm.79,.93c-.26,0-.37,.25-.37,.53,0,.28,.11,.53,.37,.53,.26,0,.37-.25,.37-.53,0-.28-.11-.53-.37-.53Z"/>
      <path class="cls-1" d="M6.23,94.18c-2.32,0-4.21-1.89-4.21-4.21s1.89-4.21,4.21-4.21,4.21,1.89,4.21,4.21-1.89,4.21-4.21,4.21Zm0-7.89c-2.03,0-3.68,1.65-3.68,3.68s1.65,3.68,3.68,3.68,3.68-1.65,3.68-3.68-1.65-3.68-3.68-3.68Z"/>
      <path class="cls-1" d="M19.8,94.02H10.05l4.87-8.44,4.87,8.44Zm-8.82-.53h7.91l-3.95-6.85-3.95,6.85Z"/>
      <path class="cls-1" d="M27.98,94h-7.31v-2.35h7.31v2.35Zm-6.78-.53h6.25v-1.29h-6.25v1.29Z"/>
      <path class="cls-1" d="M27.98,91.12h-7.31v-2.35h7.31v2.35Zm-6.78-.53h6.25v-1.29h-6.25v1.29Z"/>
      <path class="cls-1" d="M27.98,88.25h-7.31v-2.35h7.31v2.35Zm-6.78-.53h6.25v-1.29h-6.25v1.29Z"/>
    </g>
  </g>
</svg>